<?xml version="1.0" encoding="utf-8"?>
<!-- Generator: Adobe Illustrator 22.0.1, SVG Export Plug-In . SVG Version: 6.00 Build 0)  -->
<svg version="1.1" xmlns="http://www.w3.org/2000/svg" xmlns:xlink="http://www.w3.org/1999/xlink" x="0px" y="0px"
	 viewBox="0 0 1268.9 567.9" style="enable-background:new 0 0 1268.9 567.9;" xml:space="preserve">
<style type="text/css">
	.st0{fill:none;stroke:#000000;stroke-width:0.5;stroke-miterlimit:10;}
	.st1{font-family:'MyriadPro-Regular';}
	.st2{font-size:10px;}
	.st3{font-family:'RobotoCondensed-Light';}
	.st4{font-size:12px;}
	.st5{fill:none;stroke:#000000;stroke-width:2;stroke-miterlimit:10;}
	.st6{fill:none;stroke:#000000;stroke-width:2;stroke-miterlimit:10;stroke-dasharray:2,2;}
	.st7{font-family:'RobotoCondensed-Bold';}
	.st8{fill:none;stroke:#000000;stroke-miterlimit:10;}
	.st9{fill:none;stroke:#000000;stroke-width:4;stroke-miterlimit:10;}
	.st10{fill:none;stroke:#2E3192;stroke-width:4;stroke-miterlimit:10;}
	.st11{fill:none;stroke:#39B54A;stroke-width:4;stroke-miterlimit:10;}
	.st12{font-size:28px;}
	.st13{font-size:18px;}
	.st14{fill:#F26522;}
	.st15{font-size:24px;}
	.st16{fill:none;stroke:#F26522;stroke-width:3;stroke-miterlimit:10;}
</style>
<g id="Timelines">
	<line class="st0" x1="83.7" y1="381.8" x2="83.7" y2="394.7"/>
	<line class="st0" x1="153.9" y1="381.8" x2="153.9" y2="394.7"/>
	<line class="st0" x1="224.1" y1="381.8" x2="224.1" y2="394.7"/>
	<line class="st0" x1="294.3" y1="381.8" x2="294.3" y2="394.7"/>
	<line class="st0" x1="364.5" y1="381.8" x2="364.5" y2="394.7"/>
	<line class="st0" x1="434.7" y1="381.8" x2="434.7" y2="394.7"/>
	<line class="st0" x1="504.9" y1="381.8" x2="504.9" y2="394.7"/>
	<line class="st0" x1="575.1" y1="381.8" x2="575.1" y2="394.7"/>
	<line class="st0" x1="645.3" y1="381.8" x2="645.3" y2="394.7"/>
	<line class="st0" x1="715.5" y1="381.8" x2="715.5" y2="394.7"/>
	<line class="st0" x1="785.6" y1="381.8" x2="785.6" y2="394.7"/>
	<line class="st0" x1="855.8" y1="381.8" x2="855.8" y2="394.7"/>
	<line class="st0" x1="926" y1="381.8" x2="926" y2="394.7"/>
	<line class="st0" x1="996.2" y1="381.8" x2="996.2" y2="394.7"/>
	<line class="st0" x1="1066.4" y1="381.8" x2="1066.4" y2="394.7"/>
	<line class="st0" x1="1136.6" y1="381.8" x2="1136.6" y2="394.7"/>
	<line class="st0" x1="1206.8" y1="381.8" x2="1206.8" y2="394.7"/>
	<text transform="matrix(1 0 0 1 74.997 407.4492)" class="st1 st2">0:00</text>
	<text transform="matrix(1 0 0 1 145.1892 407.4492)" class="st1 st2">0:02</text>
	<text transform="matrix(1 0 0 1 215.3814 407.4492)" class="st1 st2">0:04</text>
	<text transform="matrix(1 0 0 1 285.574 407.4492)" class="st1 st2">0:06</text>
	<text transform="matrix(1 0 0 1 355.766 407.4492)" class="st1 st2">0:08</text>
	<text transform="matrix(1 0 0 1 425.9584 407.4492)" class="st1 st2">0:10</text>
	<text transform="matrix(1 0 0 1 496.1513 407.4492)" class="st1 st2">0:12</text>
	<text transform="matrix(1 0 0 1 566.3431 407.4492)" class="st1 st2">0:14</text>
	<text transform="matrix(1 0 0 1 636.5358 407.4492)" class="st1 st2">0:16</text>
	<text transform="matrix(1 0 0 1 706.7274 407.4492)" class="st1 st2">0:18</text>
	<text transform="matrix(1 0 0 1 776.92 407.4492)" class="st1 st2">0:20</text>
	<text transform="matrix(1 0 0 1 847.1124 407.4492)" class="st1 st2">0:22</text>
	<text transform="matrix(1 0 0 1 917.3048 407.4492)" class="st1 st2">0:24</text>
	<text transform="matrix(1 0 0 1 987.4971 407.4492)" class="st1 st2">0:26</text>
	<text transform="matrix(1 0 0 1 1057.6895 407.4492)" class="st1 st2">0:28</text>
	<text transform="matrix(1 0 0 1 1127.8816 407.4492)" class="st1 st2">0:30</text>
	<text transform="matrix(1 0 0 1 1198.0737 407.4492)" class="st1 st2">0:32</text>
	<text transform="matrix(-1.836970e-16 -1 1 -1.836970e-16 45.1732 324.8886)" class="st3 st4">What could be</text>
	<text transform="matrix(-1.836970e-16 -1 1 -1.836970e-16 45.1736 399.1591)" class="st3 st4">What is</text>
	<text transform="matrix(1 0 0 1 32.6318 444.6353)" class="st3 st4">Applause</text>
</g>
<g id="Annotations">
	<line class="st0" x1="54.2" y1="291.7" x2="1233.4" y2="291.7"/>
	<line class="st0" x1="54.2" y1="381.8" x2="1233.4" y2="381.8"/>
	<g>
		<g>
			<line class="st5" x1="83.7" y1="208.9" x2="83.7" y2="209.9"/>
			<line class="st6" x1="83.7" y1="211.9" x2="83.7" y2="266.9"/>
			<line class="st5" x1="83.7" y1="267.9" x2="83.7" y2="268.9"/>
		</g>
	</g>
	<g>
		<g>
			<line class="st5" x1="337" y1="208.9" x2="337" y2="209.9"/>
			<line class="st6" x1="337" y1="211.9" x2="337" y2="266.9"/>
			<line class="st5" x1="337" y1="267.9" x2="337" y2="268.9"/>
		</g>
	</g>
	<g>
		<g>
			<line class="st5" x1="868" y1="208.9" x2="868" y2="209.9"/>
			<line class="st6" x1="868" y1="211.9" x2="868" y2="266.9"/>
			<line class="st5" x1="868" y1="267.9" x2="868" y2="268.9"/>
		</g>
	</g>
	<g>
		<g>
			<line class="st5" x1="1206.8" y1="208.9" x2="1206.8" y2="209.9"/>
			<line class="st6" x1="1206.8" y1="211.9" x2="1206.8" y2="266.9"/>
			<line class="st5" x1="1206.8" y1="267.9" x2="1206.8" y2="268.9"/>
		</g>
	</g>
	<text transform="matrix(1 0 0 1 99.8447 213.9492)" class="st7 st4">Beginning</text>
	<text transform="matrix(1 0 0 1 370.6084 213.9492)" class="st7 st4">Middle</text>
	<text transform="matrix(1 0 0 1 912.1289 213.9492)" class="st7 st4">End</text>
	<line class="st8" x1="83.7" y1="435.3" x2="83.7" y2="445.6"/>
	<line class="st8" x1="89.2" y1="435.3" x2="89.2" y2="445.6"/>
	<line class="st8" x1="94" y1="435.3" x2="94" y2="445.6"/>
	<line class="st8" x1="98.7" y1="435.3" x2="98.7" y2="445.6"/>
	<line class="st9" x1="83.7" y1="365.5" x2="224.1" y2="365.5"/>
	<line class="st10" x1="276.2" y1="293.9" x2="368.8" y2="293.9"/>
	<line class="st10" x1="368.8" y1="365.5" x2="461.5" y2="365.5"/>
	<line class="st11" x1="224.1" y1="365.5" x2="276.2" y2="365.5"/>
	<line class="st0" x1="276.2" y1="293.9" x2="276.2" y2="365.5"/>
	<line class="st0" x1="368.8" y1="293.9" x2="368.8" y2="365.5"/>
	<text transform="matrix(1 0 0 1 54.1562 50.0502)"><tspan x="0" y="0" class="st3 st12">Remarks on the 50th Anniversary  </tspan><tspan x="0" y="33.6" class="st3 st12">of the Selma to Montgomery Marches</tspan></text>
	<text transform="matrix(1 0 0 1 54.1074 116.5454)" class="st3 st13">Barack Obama | March 7, 2015 | Selma, Alabama</text>
	<text transform="matrix(1 0 0 1 504.8803 224.5402)"><tspan x="0" y="0" class="st14 st7 st15">These are all wrong and  </tspan><tspan x="0" y="28.8" class="st14 st7 st15">are just examples</tspan></text>
	<g>
		<g>
			<line class="st16" x1="474.1" y1="232" x2="390.4" y2="232"/>
			<g>
				<polygon class="st14" points="394.7,217.1 368.8,232 394.7,247 				"/>
			</g>
		</g>
	</g>
	<g>
		<g>
			<line class="st16" x1="472" y1="242.1" x2="134.9" y2="425"/>
			<g>
				<polygon class="st14" points="131.6,409.8 116,435.3 145.9,436.1 				"/>
			</g>
		</g>
	</g>
	<g>
		<g>
			<line class="st16" x1="484.5" y1="263.4" x2="422.5" y2="319.7"/>
			<g>
				<polygon class="st14" points="415.7,305.6 406.6,334.1 435.8,327.8 				"/>
			</g>
		</g>
	</g>
	<g>
		<g>
			<line class="st16" x1="750.6" y1="232" x2="834.3" y2="232"/>
			<g>
				<polygon class="st14" points="829.9,247 855.8,232 829.9,217.1 				"/>
			</g>
		</g>
	</g>
</g>
</svg>
